<svg xmlns="http://www.w3.org/2000/svg" width="42.178" height="59.5" viewBox="0 0 42.178 59.5"><g transform="translate(-968.223)"><path d="M1115.826,122.344a1.633,1.633,0,0,0,.073-.73c-.01-1.059-.037-2.118-.038-3.177,0-.92.024-1.839.042-2.759,0-.195.025-.389.037-.584a1.778,1.778,0,0,1,.448-1.143,2.6,2.6,0,0,0,.164-.224c.007-.2.023-.422.023-.644,0-1.338.012-2.676,0-4.013a5.114,5.114,0,0,1,.937-3.063,10.956,10.956,0,0,1,1.93-2.075,8.257,8.257,0,0,1,1.81-1.193,3.224,3.224,0,0,1,1.454-.331,1.579,1.579,0,0,1,1.432.853,10.852,10.852,0,0,1,1.1,2.79,17.9,17.9,0,0,1,.5,3.553c.043,1.03.035,2.062.048,3.093,0,.305,0,.611,0,.867a.646.646,0,0,0,.061.125,2.282,2.282,0,0,1,.6,1.685c0,1.338.012,2.675.016,4.013,0,.78-.009,1.561-.008,2.341,0,.192.024.385.038.6.233.05.45.09.663.145a.76.76,0,0,1,.5.416.738.738,0,0,1-.353.988,1.812,1.812,0,0,1-.483.114c-.221.02-.446.009-.669.009h-8.7l-.753,0c-.485,0-.516.121-.485.553a.285.285,0,0,0,.279.256c.251.009.5.016.752.016q3.221,0,6.442,0c.251,0,.5,0,.752.023a.736.736,0,0,1,.672.726.776.776,0,0,1-.709.79c-.25.019-.5.014-.752.014H1117.2c-.251,0-.5.01-.752.018a.25.25,0,0,0-.228.2c-.013.222-.029.444-.029.666,0,1.031.009,2.063-.005,3.094-.009.668-.049,1.336-.083,2-.045.891-.1,1.781-.146,2.672a12.2,12.2,0,0,0,.089,1.919,4.768,4.768,0,0,0,.259,1.052,2.433,2.433,0,0,0,1.626,1.562,4.383,4.383,0,0,0,.9.183,9.638,9.638,0,0,0,1.086.043q1.882-.013,3.764-.044a4.618,4.618,0,0,0,.832-.061,2.1,2.1,0,0,0,1.732-1.983,9.541,9.541,0,0,0,.031-1.253c-.093-1.811-.044-3.623-.053-5.434-.008-1.561,0-3.122,0-4.682a6.967,6.967,0,0,1,.029-.751.8.8,0,0,1,.769-.643.844.844,0,0,1,.716.612,2.886,2.886,0,0,1,.031.416c0,.334,0,.669,0,1q0,4.432,0,8.863c0,.5,0,1-.021,1.5a6.481,6.481,0,0,1-.3,1.807,2.825,2.825,0,0,1-2.16,2,3.672,3.672,0,0,1-.491.1c-1.583.144-3.165.293-4.756.316a10.83,10.83,0,0,1-2.736-.3,5.941,5.941,0,0,1-.792-.262,2.706,2.706,0,0,1-1.47-1.413,5.154,5.154,0,0,1-.47-2.106c-.019-.78.006-1.56.017-2.341.009-.613.036-1.226.036-1.839q.006-4.683,0-9.365a6.68,6.68,0,0,1,.04-.833.723.723,0,0,1,.577-.641C1115.425,122.42,1115.617,122.388,1115.826,122.344Zm1.786-7.284a.926.926,0,0,0-.207.652c-.006.584-.026,1.171.014,1.752.076,1.085.087,2.17.083,3.256,0,.39,0,.78,0,1.17a1,1,0,0,0,.041.329.268.268,0,0,0,.173.151,3.932,3.932,0,0,0,.582.036c1.086,0,2.173,0,3.259,0,.864,0,1.727,0,2.591,0,.167,0,.333-.014.5-.026a.266.266,0,0,0,.224-.212c.01-.111.022-.222.022-.333.01-1.754-.032-3.508.114-5.26a4.417,4.417,0,0,0-.111-1.327.276.276,0,0,0-.23-.212,2.813,2.813,0,0,0-.331-.043,16.171,16.171,0,0,0-2.338-.017,10.6,10.6,0,0,1-1.585,0,15.864,15.864,0,0,0-2.338.014C1117.914,115,1117.751,115.039,1117.612,115.06Zm6.084-8.681c-.087.02-.187.012-.231.058a3.964,3.964,0,0,0-.306.4,9.55,9.55,0,0,1-3.355,2.819,4.938,4.938,0,0,1-.535.227.592.592,0,0,1-.556-.087c-.136-.093-.247-.223-.378-.325-.016-.012-.118.037-.125.07a1.981,1.981,0,0,0-.051.408q-.007,1.21,0,2.419c.006,1.165-.1.985,1.038,1.048.278.015.556.026.834.042,1.309.076,2.614-.046,3.919-.1a.331.331,0,0,0,.159-.045.253.253,0,0,0,.1-.124.93.93,0,0,0,.033-.246,27.188,27.188,0,0,0-.129-4.08C1124.01,108.035,1123.876,107.215,1123.7,106.378Zm-5.518,2.211a.408.408,0,0,0,.01.076c.008.026.02.064.038.07.044.015.118.036.137.015a3.227,3.227,0,0,1,.913-.577,8.043,8.043,0,0,0,3.2-3.1,3.688,3.688,0,0,0,.251-.526.538.538,0,0,0,0-.483c-.07-.119-.32-.164-.541-.092a1.524,1.524,0,0,0-.307.127,8.955,8.955,0,0,0-.777.487,10.84,10.84,0,0,0-1.933,1.836,7.909,7.909,0,0,0-.62.889A2.326,2.326,0,0,0,1118.178,108.59Z" transform="translate(-117.365 -82.135)" fill="#a7a7a7"/><path d="M974.961,40.246a2.45,2.45,0,0,0,.775.091c.194.015.39.024.581.058a.714.714,0,0,1,.558.65.8.8,0,0,1-.372.7,1.182,1.182,0,0,1-.559.147,3.5,3.5,0,0,0-.912.051c-.064.021-.079.061-.04.127.013.022.023.055.042.061a.861.861,0,0,0,.239.064c.39.012.78.013,1.171.022.223.006.446.007.667.034a.763.763,0,0,1,.608.705.788.788,0,0,1-.537.763,1.937,1.937,0,0,1-.414.046c-.446,0-.892,0-1.338,0a2.745,2.745,0,0,0-.414.028c-.038.006-.075.07-.1.114a.081.081,0,0,0,.061.129,2.031,2.031,0,0,0,.324.047c.306.009.614,0,.92.014a1.461,1.461,0,0,1,.409.069.706.706,0,0,1,.493.523.739.739,0,0,1-.243.754.687.687,0,0,1-.457.178c-.306.009-.613,0-.919.009a4.319,4.319,0,0,0-.5.035c-.038.005-.073.072-.1.116s-.006.107.064.124a1.275,1.275,0,0,0,.243.042c.223.01.446,0,.669.019a1.753,1.753,0,0,1,.408.077.759.759,0,0,1-.037,1.448,2.459,2.459,0,0,1-.746.058,1.068,1.068,0,0,0-.57.058.09.09,0,0,0-.041.057.1.1,0,0,0,.024.077.343.343,0,0,0,.138.079c.164.031.333.039.495.077a.723.723,0,0,1,.575.724.743.743,0,0,1-.628.769c-.109.021-.222.017-.332.029s-.216.032-.35.053a4.861,4.861,0,0,0-.059.5c-.013.836-.015,1.672-.025,2.508q-.07,6.018-.143,12.037c0,.084-.006.167,0,.251a.989.989,0,0,1-.338.819.631.631,0,0,0-.089.132c-.009.059.024.095.1.092.473-.02.948-.024,1.419-.068a6.638,6.638,0,0,1,1.665.09,2.746,2.746,0,0,1,.56.159,1.542,1.542,0,0,1,1.014,1.231,8.243,8.243,0,0,1,.092,1.164,7.113,7.113,0,0,1-.044.834c-.081.917-.115,1.835-.121,2.755q-.032,5.057-.066,10.115c0,.7-.007,1.393-.031,2.089a10.347,10.347,0,0,1-.307,2.147c-.047.189-.1.376-.165.56a4.542,4.542,0,0,1-3.562,3.175,5.783,5.783,0,0,1-3.9-.547,3.948,3.948,0,0,1-1.736-1.756,6.86,6.86,0,0,1-.682-2.14,13.894,13.894,0,0,1-.178-2.247c0-.641.005-1.282.014-1.923q.07-5.1.142-10.2A19.4,19.4,0,0,0,968.3,69a5.5,5.5,0,0,1,.051-1.665c.017-.082.027-.165.044-.247a1.549,1.549,0,0,1,1.128-1.226,4.241,4.241,0,0,1,1.232-.21,15.164,15.164,0,0,1,2.17.1c.163.023.329.025.508.037-.014-.072-.008-.129-.032-.152a1.066,1.066,0,0,1-.359-.9c.009-.139,0-.279,0-.418q.075-6.771.15-13.541c0-.334.009-.669.007-1,0-.262-.063-.323-.338-.376a4.941,4.941,0,0,1-.49-.1.724.724,0,0,1-.508-.691.706.706,0,0,1,.486-.7,5.98,5.98,0,0,1,.654-.117c.1-.018.164-.085.143-.15a.2.2,0,0,0-.193-.132c-.334-.018-.668-.02-1-.037a.754.754,0,0,1-.46-.176.723.723,0,0,1-.244-.753.736.736,0,0,1,.556-.567,1.75,1.75,0,0,1,.414-.042c.278-.011.557-.01.834-.024.039,0,.08-.056.11-.094s-.066-.17-.138-.175c-.166-.011-.333-.023-.5-.027-.251-.007-.5,0-.753-.014a1.484,1.484,0,0,1-.33-.049.781.781,0,0,1-.523-.774.75.75,0,0,1,.618-.692c.221-.024.445-.021.667-.027.278-.007.557-.009.835-.016.079,0,.171-.115.135-.169s-.065-.093-.1-.1c-.193-.02-.387-.032-.582-.036-.39-.008-.781,0-1.171-.019a1.5,1.5,0,0,1-.482-.116.746.746,0,0,1-.433-.745.761.761,0,0,1,.578-.638,2.531,2.531,0,0,1,.414-.044c.195,0,.39.009.585.01.307,0,.613.005.92,0,.1,0,.222,0,.27-.136.029-.084-.059-.162-.219-.17-.222-.012-.446-.01-.668-.029a2.856,2.856,0,0,1-.493-.082.742.742,0,0,1-.515-.69.731.731,0,0,1,.492-.7,1.794,1.794,0,0,1,.407-.082c.222-.015.446-.006.669-.012.346-.008.367-.025.469-.341a1.93,1.93,0,0,1,.107-.315.706.706,0,0,1,.678-.4.688.688,0,0,1,.667.42A5.45,5.45,0,0,1,974.961,40.246Zm-1.88,30.726v-.025c-.362,0-.725,0-1.087,0-.585-.008-1.17-.027-1.756-.032-.3,0-.354.129-.365.35-.012.25-.011.5-.009.752.008,1.059.024,2.117.025,3.176,0,.473-.011.947-.041,1.42-.051.806-.109,1.612-.187,2.416a33.2,33.2,0,0,0-.1,3.423,12.952,12.952,0,0,0,.2,1.994,6.839,6.839,0,0,0,.655,2.062,3.654,3.654,0,0,0,3.19,2.1,2.5,2.5,0,0,0,1.719-.515,3.815,3.815,0,0,0,1.077-1.261,6.656,6.656,0,0,0,.53-1.315,13.977,13.977,0,0,0,.491-2.708,33.567,33.567,0,0,0,.057-4.926q-.1-1.669-.183-3.338a12.155,12.155,0,0,1,.069-2.335c.088-.634.144-1.274.189-1.913.033-.472.038-.946.031-1.419a5.174,5.174,0,0,0-.093-.744.843.843,0,0,0-.779-.751,3.442,3.442,0,0,0-.416-.038c-.446-.013-.892-.031-1.337-.027a34.779,34.779,0,0,1-4.094-.038,1.394,1.394,0,0,0-.411.05.367.367,0,0,0-.254.2,1.166,1.166,0,0,0-.124.307c-.056.3-.106.6-.138.908-.055.526,0,.591.509.6.223.005.446,0,.669.008,1.477.025,2.954.048,4.431.078a3.5,3.5,0,0,1,.662.066.729.729,0,0,1,.5.986.769.769,0,0,1-.622.5,3.772,3.772,0,0,1-.584.021C974.7,70.993,973.889,70.982,973.08,70.972Z" transform="translate(0 -31.455)" fill="#a7a7a7"/><path d="M1043.763,62.518a6.034,6.034,0,0,1-.637-.319,1.868,1.868,0,0,1-.9-1.431,5.233,5.233,0,0,1,.006-1.332,1.722,1.722,0,0,1,1.454-1.52c.325-.072.661-.1.993-.138a2.383,2.383,0,0,1,.334-.012c1.227.022,2.453-.022,3.679-.057a7.2,7.2,0,0,1,1.084.056,2.124,2.124,0,0,1,1.2.535,1.978,1.978,0,0,1,.659,1.224,3.789,3.789,0,0,1-.208,1.972,1.108,1.108,0,0,1-.547.6,2.416,2.416,0,0,1-.382.166c-.58.172-.552.211-.561.75-.014.92-.034,1.839-.048,2.758q-.052,3.3-.1,6.6-.134,8.569-.267,17.138c-.031,2.006-.059,4.013-.073,6.019-.006.975.031,1.951.038,2.926,0,.7,0,1.393-.014,2.09a8.7,8.7,0,0,1-.355,2.223,6.169,6.169,0,0,1-1.358,2.469c-.093.1-.193.2-.293.3a.811.811,0,0,1-.928.165,2.81,2.81,0,0,1-1.207-.869,3.518,3.518,0,0,1-.693-1.414,6.351,6.351,0,0,1-.193-1.321q-.013-.627-.021-1.254-.031-2.132-.061-4.264-.054-3.72-.109-7.44-.079-5.141-.164-10.283-.125-7.691-.254-15.382A3.629,3.629,0,0,0,1043.763,62.518Zm1.917,19.114h.014c.014.78.03,1.561.041,2.341q.053,3.846.1,7.692c.036,2.369.088,4.738.114,7.107a28.356,28.356,0,0,0,.17,3c.052.442.118.884.209,1.32a5.427,5.427,0,0,0,.26.791.331.331,0,0,0,.3.243.406.406,0,0,0,.329-.23,3.506,3.506,0,0,0,.233-.443,5.451,5.451,0,0,0,.491-2.187c0-.752-.04-1.5-.061-2.256-.017-.613-.05-1.225-.046-1.838.007-.976.046-1.951.061-2.926q.089-5.643.172-11.287.1-6.772.2-13.545c.022-1.589.034-3.177.056-4.766q.016-1.212.049-2.424a4.094,4.094,0,0,1,.066-.664.69.69,0,0,1,.48-.534c.13-.046.271-.062.4-.1a2.117,2.117,0,0,0,.391-.136.784.784,0,0,0,.365-1.066.454.454,0,0,0-.367-.3,3.369,3.369,0,0,1-.578-.074,5.668,5.668,0,0,0-1.824-.166c-.948.032-1.89.146-2.831.255a3.45,3.45,0,0,0-.643.172.777.777,0,0,0-.209.135.475.475,0,0,0-.158.525,1.027,1.027,0,0,0,.845.718,6.5,6.5,0,0,0,1.584.041c.333-.03.667-.058,1-.069a1.293,1.293,0,0,1,.41.059.734.734,0,0,1,.513.773.7.7,0,0,1-.533.668,3.3,3.3,0,0,1-.577.084c-.306.02-.613.02-.92.033a.772.772,0,0,0-.244.044.181.181,0,0,0-.106.119c-.019.277-.036.555-.031.833q.069,4.766.145,9.532Q1045.626,77.368,1045.681,81.632Z" transform="translate(-59.318 -46.282)" fill="#a7a7a7"/><path d="M1030.195,0a6.323,6.323,0,0,1,2.034.393,10.249,10.249,0,0,1,2.15,1.1,32.479,32.479,0,0,1,2.812,2.1c.38.325.738.678,1.087,1.037a3.212,3.212,0,0,1,.7,1.129,1.456,1.456,0,0,1,.014,1.061,4.265,4.265,0,0,1-.321.676,4.725,4.725,0,0,1-.772.983c-.4.386-.8.774-1.219,1.142-.585.516-1.183,1.016-1.778,1.521a1.312,1.312,0,0,1-.271.193.782.782,0,0,1-.317.085.824.824,0,0,1-.769-.65.653.653,0,0,1,.166-.619c.24-.232.49-.454.746-.668.449-.376.911-.735,1.356-1.114a8.364,8.364,0,0,0,1.175-1.184,1.258,1.258,0,0,0,.072-1.551,3.223,3.223,0,0,0-.453-.6,8.577,8.577,0,0,0-.922-.846,16.8,16.8,0,0,0-4.311-2.35,3.453,3.453,0,0,0-2.524,0,13.951,13.951,0,0,0-4.7,2.811,4.025,4.025,0,0,0-.822,1.045,1.275,1.275,0,0,0,.1,1.486,5.292,5.292,0,0,0,.677.736c.46.4.942.783,1.421,1.165.3.243.62.473.929.711a3.853,3.853,0,0,1,.32.268.667.667,0,0,1,.115.905.808.808,0,0,1-1.024.3,2.044,2.044,0,0,1-.275-.188c-.654-.52-1.31-1.037-1.959-1.564a10.667,10.667,0,0,1-1.562-1.505,3.829,3.829,0,0,1-.538-.842,2.047,2.047,0,0,1,.138-2.068,5.619,5.619,0,0,1,.988-1.129c.31-.279.631-.549.964-.8q.965-.733,1.949-1.439a11.386,11.386,0,0,1,2.185-1.217A6.3,6.3,0,0,1,1030.195,0Z" transform="translate(-42.581)" fill="#a7a7a7"/></g></svg>