<svg xmlns="http://www.w3.org/2000/svg" width="51.786" height="59.5" viewBox="0 0 51.786 59.5"><g transform="translate(-982.738 -545.49)"><path d="M984.609,577.514q-.143-2.3-.287-4.594c-.008-.128-.019-.255-.026-.383-.094-1.724-.183-3.448-.284-5.171-.088-1.5-.195-3-.286-4.5-.085-1.4-.171-2.808-.237-4.213-.09-1.917-.259-3.826-.49-5.732-.112-.919-.179-1.845-.238-2.77a9.053,9.053,0,0,1,.137-2.388,5.877,5.877,0,0,1,.261-.919,1.839,1.839,0,0,1,1.415-1.17,7.017,7.017,0,0,1,2.385-.138,27.562,27.562,0,0,0,3.352.148q5.758,0,11.516,0a10.267,10.267,0,0,1,2,.17,2.608,2.608,0,0,1,.8.307,1.956,1.956,0,0,1,.9,1.086,3.729,3.729,0,0,1,.225,1.317c-.02.8-.042,1.6-.075,2.4-.025.607-.068,1.213-.1,1.819q-.168,2.776-.338,5.552-.122,2.01-.244,4.021-.148,2.441-.3,4.883-.151,2.537-.3,5.075-.14,2.345-.283,4.691c-.072,1.213-.146,2.425-.21,3.638-.1,1.915-.193,3.831-.289,5.747q-.14,2.778-.28,5.555c-.016.319-.033.639-.044.958-.082,2.332-.167,4.665-.241,7a10.467,10.467,0,0,1-.195,1.713,5.849,5.849,0,0,1-.339,1.1,2.993,2.993,0,0,1-1.566,1.612,5.417,5.417,0,0,1-1.462.451,14.554,14.554,0,0,1-2.485.192c-.831-.02-1.663-.047-2.494-.075-1.151-.038-2.3-.1-3.452-.112a11.164,11.164,0,0,1-1.9-.2,4.485,4.485,0,0,1-1.428-.54,3.632,3.632,0,0,1-1.473-1.6,5.226,5.226,0,0,1-.443-1.364,10.863,10.863,0,0,1-.214-2c.007-1.055.013-2.11.011-3.165,0-.671,0-1.343-.033-2.013-.08-1.532-.185-3.064-.275-4.6-.1-1.723-.2-3.447-.3-5.171-.089-1.5-.186-3-.277-4.5-.043-.7-.082-1.4-.122-2.106Zm17.2,4.319c-.214.129-.431.264-.652.392A13.569,13.569,0,0,1,995.919,584a13.231,13.231,0,0,1-7.036-1.034c-.5-.221-.98-.47-1.459-.726a.692.692,0,0,1-.354-.642.861.861,0,0,1,.292-.684.842.842,0,0,1,.972-.18c.232.107.461.222.691.332a11.74,11.74,0,0,0,7.089,1.1,11.868,11.868,0,0,0,5.333-2.261c.818-.615.727-.491.8-1.5q.014-.192.024-.383c.083-1.5.162-3,.248-4.5q.106-1.868.224-3.736c.1-1.564.2-3.128.294-4.693.1-1.629.181-3.258.271-4.887.005-.1.015-.191.021-.287.1-1.66.216-3.32.3-4.98.074-1.421.2-1.277-1.235-1.278q-7.394-.008-14.787,0c-.288,0-.577.011-.864-.01a1.943,1.943,0,0,1-.559-.117.749.749,0,0,1-.487-.658.831.831,0,0,1,.645-.934,3.627,3.627,0,0,1,.76-.072c1.312-.007,2.625,0,3.937,0q5.905,0,11.811,0c.287,0,.574-.017.861-.032a.318.318,0,0,0,.266-.239c.076-.538.169-1.075.214-1.616a6.077,6.077,0,0,0,0-1.245c-.14-1.126-.672-1.358-1.531-1.277-.477.044-.958.06-1.437.062-2.593.006-5.185-.009-7.778.008a30.167,30.167,0,0,1-3.352-.2c-.893-.094-1.786-.159-2.682-.173-.447-.007-.9.015-1.342.052a3.31,3.31,0,0,0-.65.151.858.858,0,0,0-.619.666,6.474,6.474,0,0,0-.158,1.523,45.8,45.8,0,0,0,.28,4.6c.09,1.019.193,2.037.27,3.058.075.989.122,1.979.185,2.969.008.124.036.247.052.355a.312.312,0,0,0,.371-.054,13.564,13.564,0,0,1,16.74-.362.96.96,0,0,1,.306,1.2.779.779,0,0,1-1.116.39c-.138-.081-.267-.176-.4-.265-.265-.178-.523-.371-.8-.534a11.611,11.611,0,0,0-5.346-1.681,13.26,13.26,0,0,0-3.057.186,11.873,11.873,0,0,0-6.363,3.512.689.689,0,0,0-.194.521c.014.384.022.768.044,1.151q.2,3.4.4,6.8c.068,1.149.133,2.3.205,3.448.094,1.5.2,3,.288,4.5.1,1.724.189,3.449.284,5.174.007.128.018.255.026.383.1,1.628.2,3.256.3,4.885.073,1.277.132,2.555.2,3.833a.41.41,0,0,0,.163.352c.1-.014.229-.027.354-.048a10.566,10.566,0,0,1,2.3-.132c.895.044,1.789.109,2.684.159.511.028,1.023.059,1.534.062,1.632.008,3.265,0,4.9,0,.288,0,.577,0,.863.022a.875.875,0,0,1,.77.743.865.865,0,0,1-.473.867,1.007,1.007,0,0,1-.362.109c-.287.02-.576.019-.863.019q-5.329,0-10.659,0c-.287,0-.575.015-.862.028a.314.314,0,0,0-.251.253c-.011.063-.028.125-.033.189a25.14,25.14,0,0,0-.047,3.069,5.029,5.029,0,0,0,.372,1.679,2.929,2.929,0,0,0,1.464,1.582,5.107,5.107,0,0,0,1.558.457,35.327,35.327,0,0,0,5.933.374,9.859,9.859,0,0,0,2.466-.337,2.309,2.309,0,0,0,1.348-1.014,4.485,4.485,0,0,0,.6-1.5.225.225,0,0,0-.137-.222,3.38,3.38,0,0,0-.471-.058c-.928-.006-1.856,0-2.785,0q-4.177,0-8.354,0a7.681,7.681,0,0,1-.957-.05.854.854,0,0,1-.081-1.659,1.68,1.68,0,0,1,.377-.061c.288-.01.576-.007.864-.007q5.377,0,10.755,0c1.245,0,1.191.135,1.225-1.2.032-1.247.013-2.5.017-3.742,0-1.12-.024-2.24.02-3.358.06-1.534.172-3.066.263-4.6.066-1.118.135-2.235.2-3.353a.677.677,0,0,0-.043-.277C1001.947,581.9,1001.869,581.873,1001.808,581.833Z" fill="#a7a7a7"/><path d="M1108.546,570.716a1.587,1.587,0,0,0,.083-.787q.008-3.407,0-6.814c0-.256,0-.512.018-.767a1.048,1.048,0,0,1,.1-.366.735.735,0,0,1,.576-.458,8.474,8.474,0,0,1,.956-.052q3.841-.006,7.681,0c.287,0,.574-.018.861-.032a.319.319,0,0,0,.25-.254,3.705,3.705,0,0,0,.033-.381q0-2.255,0-4.51a1.244,1.244,0,0,0-.044-.378.392.392,0,0,0-.178-.2.617.617,0,0,0-.28-.05q-2.88,0-5.76,0a2.343,2.343,0,0,0-.286.03.3.3,0,0,0-.256.245c-.013.223-.026.446-.026.67,0,1.024,0,2.047,0,3.071a4.013,4.013,0,0,1-.043.668.864.864,0,0,1-.914.682.852.852,0,0,1-.78-.725,6.755,6.755,0,0,1-.035-.766c0-.992,0-1.983,0-2.975,0-.19-.031-.379-.05-.568a.3.3,0,0,0-.218-.161c-.317.041-.634.082-.951.127l-5.7.815c-.031,0-.062.017-.093.025a.354.354,0,0,0-.249.263c-.014.287-.005.577-.039.861a1.575,1.575,0,0,1-.162.545.862.862,0,0,1-1.389.1,1.022,1.022,0,0,1-.144-.247.789.789,0,0,1-.065-.279c-.005-.7-.018-1.407,0-2.109a.782.782,0,0,1,.648-.738c.062-.015.126-.024.189-.035.22-.039.44-.084.662-.116q3.371-.487,6.743-.97a15.307,15.307,0,0,1,3.249-.223h6.241c.256,0,.513-.005.768.01a.96.96,0,0,1,.937.916c.023.254.019.511.019.767q0,2.255,0,4.51c0,.224,0,.448,0,.672.009.569-.036.734.675.756a1.017,1.017,0,0,1,.282.054.8.8,0,0,1,.556.607,2.607,2.607,0,0,1,.045.572q0,2.831,0,5.662a3.55,3.55,0,0,1-.029.478.864.864,0,0,1-1.713-.017,7.221,7.221,0,0,1-.03-.766c0-1.311,0-2.623,0-3.934a4.232,4.232,0,0,0-.044-.668.284.284,0,0,0-.186-.185,4.086,4.086,0,0,0-.666-.05c-1.408,0-2.817,0-4.225,0s-2.816,0-4.225,0c-.223,0-.446.02-.668.036a.234.234,0,0,0-.2.182,1.353,1.353,0,0,0-.046.379q0,3.311,0,6.622a.235.235,0,0,0,0,.1c.04.084.068.182.18.2a1.391,1.391,0,0,0,.282.043c1.215-.045,2.431-.073,3.644-.149a61.2,61.2,0,0,1,6.811-.122,19.291,19.291,0,0,1,2.091.282,4.3,4.3,0,0,1,.649.172,2.8,2.8,0,0,1,2,2.244,9.064,9.064,0,0,1,.167,1.812q-.014,10.076-.016,20.152,0,5.566,0,11.132a20,20,0,0,1-.113,2.107,3.985,3.985,0,0,1-.252,1.022,2.434,2.434,0,0,1-1.355,1.415,4.832,4.832,0,0,1-1.385.369,38.406,38.406,0,0,1-5.08.21c-1.376-.028-2.751-.058-4.125-.146-.894-.057-1.791-.045-2.687-.066a6.882,6.882,0,0,1-.766-.034.865.865,0,0,1-.652-1.3.735.735,0,0,1,.521-.388,2.5,2.5,0,0,1,.477-.038c1.152.019,2.3.035,3.451.152.763.077,1.533.088,2.3.125.607.029,1.214.056,1.822.077a17.711,17.711,0,0,0,2.587-.12c.508-.057,1.013-.145,1.516-.237a2.773,2.773,0,0,0,.547-.178,2.233,2.233,0,0,0,1.291-1.343,4.178,4.178,0,0,0,.25-1.217,18.1,18.1,0,0,0-.071-2.684c-.071-.8-.089-1.6-.089-2.4q0-12.476,0-24.951c0-.48.016-.96.008-1.44a7.739,7.739,0,0,0-.061-.956,1.634,1.634,0,0,0-.986-1.324,4.34,4.34,0,0,0-1.2-.334,26.337,26.337,0,0,0-3.83-.228c-2.112,0-4.224.033-6.334.147-.671.036-1.344.028-2.016.044-.48.012-.959.034-1.439.046a2.91,2.91,0,0,0-.933.209,1.563,1.563,0,0,0-1.011,1.076,3.155,3.155,0,0,0-.125.656c-.031.446-.048.894-.048,1.342q0,12.14.006,24.279a30.093,30.093,0,0,1-.116,3.546c-.071.6-.081,1.212-.114,1.819a9.338,9.338,0,0,0,.092,1.914,4.94,4.94,0,0,0,.233.927,1.624,1.624,0,0,0,.942,1.029,1.966,1.966,0,0,1,.263.116.888.888,0,0,1-.741,1.6,3.093,3.093,0,0,1-2.151-2.018,4.445,4.445,0,0,1-.288-1.308c-.027-.638-.077-1.28-.044-1.916.11-2.078.113-4.156.112-6.236q0-7.053,0-14.107c0-2.048-.053-4.093-.17-6.138a30.179,30.179,0,0,1,.14-5.365c.035-.285.084-.569.146-.85a2.794,2.794,0,0,1,2.407-2.29c.345-.066.7-.094,1.046-.145C1108.329,570.778,1108.447,570.74,1108.546,570.716Z" transform="translate(-91.725 -6.465)" fill="#a7a7a7"/><path d="M1187.953,690.067q0,3.018,0,6.035c0,.255.009.512-.013.766a1.367,1.367,0,0,1-.121.456.8.8,0,0,1-.87.453.85.85,0,0,1-.722-.669,3.619,3.619,0,0,1-.045-.571c-.005-.639,0-1.277,0-1.916q0-5.221,0-10.442c0-.319,0-.639.027-.957a.878.878,0,0,1,.833-.784.907.907,0,0,1,.881.732,6.758,6.758,0,0,1,.031.764q0,1.772,0,3.544Z" transform="translate(-157.218 -105.834)" fill="#a7a7a7"/><path d="M1187.956,766.369c0,.64,0,1.279,0,1.918a4.215,4.215,0,0,1-.034.573.866.866,0,0,1-.716.682.835.835,0,0,1-.888-.429,1.1,1.1,0,0,1-.111-.361,4.843,4.843,0,0,1-.023-.574q0-1.87,0-3.741a5.323,5.323,0,0,1,.037-.669.826.826,0,0,1,.806-.688.849.849,0,0,1,.895.7,4.407,4.407,0,0,1,.032.573C1187.958,765.026,1187.956,765.7,1187.956,766.369Z" transform="translate(-157.221 -168.153)" fill="#a7a7a7"/></g></svg>