<svg xmlns="http://www.w3.org/2000/svg" width="184" height="184" viewBox="0 0 184 184"><g opacity="0.2"><g fill="rgba(0,0,0,0)" stroke="rgba(0,0,0,0)" stroke-width="1"><rect width="184" height="184" stroke="none"/><rect x="0.5" y="0.5" width="183" height="183" fill="none"/></g><path d="M40.5,6l4.5.5L40.5,7Z" fill="rgba(0,0,0,0.18)"/><path d="M53.5,6l5.5.5L53.5,7Z" fill="rgba(0,0,0,0.18)"/><path d="M126.5,6l4.5.5-4.5.5Z" fill="rgba(0,0,0,0.18)"/><path d="M139.5,6l4.5.5-4.5.5Z" fill="rgba(0,0,0,0.18)"/><path d="M32.5,8l2.5.5L32.5,9Z" fill="rgba(0,0,0,0.18)"/><path d="M118.5,8l2.5.5L116.5,10V9Z" fill="rgba(0,0,0,0.18)"/><path d="M149.5,8l2.5.5-2.5.5Z" fill="rgba(0,0,0,0.18)"/><path d="M71.5,11,74,12.5,72.5,12Z" fill="rgba(0,0,0,0.18)"/><path d="M110.5,12l-1,2-2,1,1-2Z" fill="rgba(0,0,0,0.18)"/><path d="M159.5,12l3.5,2.5-1.5-.5Z" fill="rgba(0,0,0,0.18)"/><path d="M22.5,13l-1,2Z" fill="rgba(0,0,0,0.18)"/><path d="M75.5,13l1,2Z" fill="rgba(0,0,0,0.18)"/><path d="M78.5,15l3,4Z" fill="rgba(0,0,0,0.18)"/><path d="M18.5,16l-9,10Z" fill="rgba(0,0,0,0.18)"/><path d="M104.5,16l-9,10Z" fill="rgba(0,0,0,0.18)"/><path d="M165.5,16l8,9Z" fill="rgba(0,0,0,0.18)"/><path d="M85.5,22l3,4Z" fill="rgba(0,0,0,0.18)"/><path d="M8.5,27l-1,2Z" fill="rgba(0,0,0,0.18)"/><path d="M89.5,27l1,2Z" fill="rgba(0,0,0,0.18)"/><path d="M94.5,27l-1,2Z" fill="rgba(0,0,0,0.18)"/><path d="M179.5,34l1.5,3.5h-1Z" fill="rgba(0,0,0,0.18)"/><path d="M1.5,41,2,43.5H1Z" fill="rgba(0,0,0,0.18)"/><path d="M.5,45,1,48.5H0Z" fill="rgba(0,0,0,0.18)"/><path d="M183.5,45l.5,3.5h-1Z" fill="rgba(0,0,0,0.18)"/><path d="M.5,62,1,67.5H0Z" fill="rgba(0,0,0,0.18)"/><path d="M183.5,62l.5,5.5h-1Z" fill="rgba(0,0,0,0.18)"/><path d="M1.5,69,2,72.5H1Z" fill="rgba(0,0,0,0.18)"/><path d="M182.5,70l.5,2.5h-1Z" fill="rgba(0,0,0,0.18)"/><path d="M15.5,107l2.5,3.5-2-1Z" fill="rgba(0,0,0,0.18)"/><path d="M167.5,109l-1,2Z" fill="rgba(0,0,0,0.18)"/><path d="M19.5,114l1,2Z" fill="rgba(0,0,0,0.18)"/><path d="M164.5,114l-1,2Z" fill="rgba(0,0,0,0.18)"/><path d="M22.5,119l1,2Z" fill="rgba(0,0,0,0.18)"/><path d="M161.5,119l-1,2Z" fill="rgba(0,0,0,0.18)"/><path d="M24.5,122l4.5,5.5-3-2Z" fill="rgba(0,0,0,0.18)"/><path d="M159.5,122l-1.5,2.5-2.5,3.5,1.5-2.5Z" fill="rgba(0,0,0,0.18)"/><path d="M29.5,129l2,3Z" fill="rgba(0,0,0,0.18)"/><path d="M154.5,129l-1.5,2.5-3.5,4.5,2.5-3.5Z" fill="rgba(0,0,0,0.18)"/><path d="M32.5,133l2,3Z" fill="rgba(0,0,0,0.18)"/><path d="M36.5,138l4,5Z" fill="rgba(0,0,0,0.18)"/><path d="M147.5,138l-3,4Z" fill="rgba(0,0,0,0.18)"/><path d="M41.5,144l13,14Z" fill="rgba(0,0,0,0.18)"/><path d="M142.5,144l-13,14Z" fill="rgba(0,0,0,0.18)"/><path d="M58.5,160l4,5Z" fill="rgba(0,0,0,0.18)"/><path d="M125.5,160l-4,5Z" fill="rgba(0,0,0,0.18)"/><path d="M64.5,165l1,2Z" fill="rgba(0,0,0,0.18)"/><path d="M119.5,165l-2,3-3,2,2-3Z" fill="rgba(0,0,0,0.18)"/><path d="M67.5,167l4.5,3.5-1.5-.5Z" fill="rgba(0,0,0,0.18)"/><path d="M73.5,171l3.5,2.5-1.5-.5Z" fill="rgba(0,0,0,0.18)"/><path d="M110.5,171l-1,2-2,1,1-2Z" fill="rgba(0,0,0,0.18)"/><path d="M86.5,177l2.5.5-2.5.5Z" fill="rgba(0,0,0,0.18)"/><path d="M95.5,177l2.5.5-2.5.5Z" fill="rgba(0,0,0,0.18)"/><path d="M48.5,12l2.5.5-2.5.5Z" fill="#ec4b77"/><path d="M133.5,12l2.5.5-2.5.5Z" fill="#ec4b77"/><path d="M27.5,18l-1,2Z" fill="#ec4b77"/><path d="M156.5,18l1,2Z" fill="#ec4b77"/><path d="M24.5,20l-2,3Z" fill="#ec4b77"/><path d="M73.5,20l1,2Z" fill="#ec4b77"/><path d="M110.5,20l-1,2Z" fill="#ec4b77"/><path d="M159.5,20l2,3Z" fill="#ec4b77"/><path d="M77.5,23l2,3Z" fill="#ec4b77"/><path d="M163.5,23l2,3Z" fill="#ec4b77"/><path d="M105.5,24l-1,2Z" fill="#ec4b77"/><path d="M82.5,29l2,3Z" fill="#ec4b77"/><path d="M101.5,29l-1,2Z" fill="#ec4b77"/><path d="M99.5,32l-1,2Z" fill="#ec4b77"/><path d="M7.5,45,8,48.5H7Z" fill="#ec4b77"/><path d="M176.5,45l.5,2.5h-1Z" fill="#ec4b77"/><path d="M56.5,54l3.5.5-3.5.5Z" fill="#ec4b77"/><path d="M124.5,54l3.5.5-3.5.5Z" fill="#ec4b77"/><path d="M113.5,58l-1,2Z" fill="#ec4b77"/><path d="M44.5,59l-3,4Z" fill="#ec4b77"/><path d="M139.5,59l3,4Z" fill="#ec4b77"/><path d="M7.5,63,8,66.5H7Z" fill="#ec4b77"/><path d="M176.5,64l.5,3.5h-1Z" fill="#ec4b77"/><path d="M144.5,65l1.5,2.5h-1Z" fill="#ec4b77"/><path d="M36.5,72l.5,8.5H36Z" fill="#ec4b77"/><path d="M147.5,72l.5,2.5h-1Z" fill="#ec4b77"/><path d="M147.5,78l.5,2.5h-1Z" fill="#ec4b77"/><path d="M106.5,87l1,2Z" fill="#ec4b77"/><path d="M39.5,88l2,3Z" fill="#ec4b77"/><path d="M144.5,88l-1,2Z" fill="#ec4b77"/><path d="M75.5,90l-3,4Z" fill="#ec4b77"/><path d="M108.5,90l3,4Z" fill="#ec4b77"/><path d="M138.5,94l-1,2Z" fill="#ec4b77"/><path d="M54.5,98l2.5.5-2.5.5Z" fill="#ec4b77"/><path d="M127.5,98l2.5.5-2.5.5Z" fill="#ec4b77"/><path d="M20.5,102l1,2Z" fill="#ec4b77"/><path d="M163.5,102l-1,2Z" fill="#ec4b77"/><path d="M23.5,107l1,2Z" fill="#ec4b77"/><path d="M160.5,107l-1,2Z" fill="#ec4b77"/><path d="M81.5,113l-1,2Z" fill="#ec4b77"/><path d="M102.5,113l1,2Z" fill="#ec4b77"/><path d="M28.5,115l1,2Z" fill="#ec4b77"/><path d="M155.5,115l-1,2Z" fill="#ec4b77"/><path d="M30.5,118l1,2Z" fill="#ec4b77"/><path d="M153.5,118l-1,2Z" fill="#ec4b77"/><path d="M35.5,125l2,3Z" fill="#ec4b77"/><path d="M148.5,125l-1,2Z" fill="#ec4b77"/><path d="M38.5,129l2,3Z" fill="#ec4b77"/><path d="M145.5,129l-2,3Z" fill="#ec4b77"/><path d="M43.5,135l4,5Z" fill="#ec4b77"/><path d="M140.5,135l-4,5Z" fill="#ec4b77"/><path d="M131.5,145l-3,4Z" fill="#ec4b77"/><path d="M62.5,154l4,5Z" fill="#ec4b77"/><path d="M121.5,154l-4,5Z" fill="#ec4b77"/><path d="M68.5,159l1,2Z" fill="#ec4b77"/><path d="M115.5,159l-1,2Z" fill="#ec4b77"/><path d="M72.5,162l1,2Z" fill="#ec4b77"/><path d="M111.5,162l-1,2Z" fill="#ec4b77"/><path d="M75.5,164l1,2Z" fill="#ec4b77"/><path d="M108.5,164l-1,2Z" fill="#ec4b77"/><path d="M42.5,13h14l7,2A42.476,42.476,0,0,1,82,28.5l5,7,1,4L91.5,43,96,39.5l1-4L108.5,22l12-7,7-2h14q18.1,3.9,27.5,16.5l7,14,1,5v15l-3,15-5,13L151,123q-2.7-1.1-2,1.5A192.5,192.5,0,0,1,122.5,154l-21,15q-4.6,2.9-13,2A106.985,106.985,0,0,1,48,140.5L35,123q-2.7,1.1-2-1.5l-13-20-10-23-3-16v-13Q9.9,31.9,21.5,23l13-8ZM57,54,45,59q-6,5-9,14v8l3,8q5,7,16,10h7l11-5q5-4,7-12,2-12-3-17Q71,55,57,54Zm68,0-11,4q-8,4-10,14-2,13,4,19,5,6,15,8h7l8-3q8-5,10-15V73l-5-10Q137,55,125,54ZM88,110l-11,6-1,3,1,4h5q3-5,10-6a16.471,16.471,0,0,1,11,6h4l1-2-1-5-10-6Z" fill="rgba(118,75,114,0.2)"/><path d="M44,80h8.5q1.3,4.3,8,3L63,82l.5-2h9L72,81.5,68.5,88q-4,4-12,4Q48.4,90.6,45,84.5Z" fill="#d4cabc"/><path d="M111.5,80h9l.5,2h1.5q1.2,2.2,6,1l3-3H140q-.4,7.1-6.5,10l-10,2L114,86.5Z" fill="#d4cabc"/><path d="M0,0H183.5l.5.5v44h-1Q178.8,25.7,165.5,16l-14-8-8-2h-17Q105.6,10.6,95,25.5L93,30q-2.7,1.1-2-1.5L84,19,72.5,11l-7-3-7-2h-18Q19.6,10.6,9,25.5A49.6,49.6,0,0,0,.5,45Z" fill="rgba(0,0,0,0)"/><path d="M.5,68Q5.1,91.9,16,109.5A198.968,198.968,0,0,0,54.5,158a90.511,90.511,0,0,0,26,18q6.1,3.4,17,2l20-10L143,144.5a184.8,184.8,0,0,0,25-35Q178.9,91.9,183.5,68l.5,116H0Z" fill="rgba(0,0,0,0)"/><path d="M44.5,12l3.5.5-3.5.5Z" fill="#a36560"/><path d="M51.5,12l2.5.5-2.5.5Z" fill="#a36560"/><path d="M130.5,12l2.5.5-2.5.5Z" fill="#a36560"/><path d="M136.5,12l3.5.5-3.5.5Z" fill="#a36560"/><path d="M22.5,21l-1,2Z" fill="#a36560"/><path d="M75.5,21l1,2Z" fill="#a36560"/><path d="M108.5,21l-2,3Z" fill="#a36560"/><path d="M161.5,21l1,2Z" fill="#a36560"/><path d="M17.5,26l-2,3Z" fill="#a36560"/><path d="M80.5,26l3,4Z" fill="#a36560"/><path d="M103.5,26l-2,3Z" fill="#a36560"/><path d="M166.5,26l2,3Z" fill="#a36560"/><path d="M99.5,31l-1,2Z" fill="#a36560"/><path d="M170.5,31l1,2Z" fill="#a36560"/><path d="M89.5,40l1,2Z" fill="#a36560"/><path d="M94.5,40l-1,2Z" fill="#a36560"/><path d="M177.5,48l.5,14.5h-1Z" fill="#a36560"/><path d="M6.5,49,7,62.5H6Z" fill="#a36560"/><path d="M46.5,58l-1,2Z" fill="#a36560"/><path d="M137.5,58l1,2Z" fill="#a36560"/><path d="M71.5,59l4,5Z" fill="#a36560"/><path d="M111.5,60l-3,4Z" fill="#a36560"/><path d="M56.5,61q10.4.1,14.5,6.5L73,74H64.5q-1.9-4.1-9-3-2,5-11,3-2.7-1.2-.5-2.5A11.676,11.676,0,0,1,50.5,63Z" fill="#e4b596"/><path d="M123.5,61q11.8-.3,15.5,7.5l2,4L139.5,74h-8q-1.2-4.2-8-3-3.3,4.9-12.5,3,.5-6.8,5.5-10Z" fill="#e4b596"/><path d="M41.5,63l-1,2Z" fill="#a36560"/><path d="M76.5,65l1,2Z" fill="#a36560"/><path d="M107.5,65l-1,2Z" fill="#a36560"/><path d="M147.5,75l.5,2.5h-1Z" fill="#a36560"/><path d="M53.5,80,57,82.5l-1.5.5Z" fill="#a36560"/><path d="M130.5,80l-2,3-1.5-.5Z" fill="#a36560"/><path d="M71.5,84l-1,2Z" fill="#a36560"/><path d="M112.5,84l1,2Z" fill="#a36560"/><path d="M138.5,85l-3,4Z" fill="#a36560"/><path d="M46.5,86l2,3Z" fill="#a36560"/><path d="M67.5,88l-1,2Z" fill="#a36560"/><path d="M76.5,88l-1,2Z" fill="#a36560"/><path d="M116.5,88l1,2Z" fill="#a36560"/><path d="M142.5,90l-3,4Z" fill="#a36560"/><path d="M42.5,91l2,3Z" fill="#a36560"/><path d="M71.5,93l-1,2Z" fill="#a36560"/><path d="M112.5,93l1,2Z" fill="#a36560"/><path d="M57.5,98l2.5.5-2.5.5Z" fill="#a36560"/><path d="M124.5,98l2.5.5-2.5.5Z" fill="#a36560"/><path d="M89.5,110l5.5.5-5.5.5Z" fill="#a36560"/><path d="M25.5,111l1,2Z" fill="#a36560"/><path d="M158.5,111l-1,2Z" fill="#a36560"/><path d="M79.5,115l-2,3Z" fill="#a36560"/><path d="M104.5,115l2,3Z" fill="#a36560"/><path d="M84.5,119l-2,3Z" fill="#a36560"/><path d="M99.5,119l2,3Z" fill="#a36560"/><path d="M31.5,120l1,2Z" fill="#a36560"/><path d="M77.5,121l1,2Z" fill="#a36560"/><path d="M150.5,123l-1,2Z" fill="#a36560"/><path d="M147.5,127l-1,2Z" fill="#a36560"/><path d="M40.5,132l2,3Z" fill="#a36560"/><path d="M143.5,132l-2,3Z" fill="#a36560"/><path d="M45.5,138l9,10Z" fill="#a36560"/><path d="M138.5,138l-4,5Z" fill="#a36560"/><path d="M56.5,149l5,6Z" fill="#a36560"/><path d="M127.5,149l-6,7Z" fill="#a36560"/><path d="M70.5,161l1,2Z" fill="#a36560"/><path d="M113.5,161l-1,2Z" fill="#a36560"/><path d="M45.5,6h7l14,3A51.876,51.876,0,0,1,85,21.5L91,31q2.7,1.1,2-1.5L106.5,15l18-8,14-1,14,3,6,3A44.517,44.517,0,0,1,175,26.5l8,17,1,18-4,20-12,27A198.276,198.276,0,0,1,126.5,160l-22,15q-5.7,3.3-15,3l-10-3-16-10L41,143.5a188.562,188.562,0,0,1-32-49l-7-21-1-11-1-1v-12Q4.1,26.1,20.5,15l11-6ZM45,12,31,16l-8,5Q10,31,6,50L7,69l7,22a179.821,179.821,0,0,0,31,48q17,22,45,33h5l12-5,15-11a215.865,215.865,0,0,0,37-44q14-21,19-49,2-24-9-34L156,17l-16-5h-9l-9,2-13,7Q99,27,95,40l-3,2L84,30A52.731,52.731,0,0,0,68,16L54,12Z" fill="rgba(5,2,2,0.98)"/><path d="M55.5,55q15.1-.1,20.5,9.5,4.2,5.3,4,15Q78.1,88.1,72.5,93l-10,5h-9Q44.4,95.5,40,88.5q-4.4-5.2-3-16A27.172,27.172,0,0,1,44.5,60ZM57,61l-6,2q-6,2-7,9-2,1,1,2,9,2,11-3,7-1,9,3h8l-2-6Q67,61,57,61ZM44,80l2,7,9,5q8,1,12-2,6-3,6-10H64l-4,3-6-3Z" fill="rgba(5,2,2,0.98)"/><path d="M123.5,55l9,1L143,63.5l4,8v10q-2.5,9-9.5,13.5-5.2,4.4-16,3-8.3-1.7-12.5-7.5-4.8-5.7-5-16,1.9-11.6,10.5-16.5Zm.5,6-7,3q-5,3-6,10,9,2,13-3,6-1,8,3h8l1-1-2-4Q135,61,124,61ZM111,80l1,5,10,7q9,1,14-3,4-2,4-7l1-2q-11-2-14,3l-6-3Z" fill="rgba(5,2,2,0.98)"/><path d="M87.5,111l12,1,7.5,6.5q1.5,4.4-1.5,3.5h-2l-8-5h-7l-9,6q-3-.5-2.5-4.5A21.071,21.071,0,0,1,87.5,111Z" fill="rgba(5,2,2,0.98)"/></g></svg>