<svg xmlns="http://www.w3.org/2000/svg" width="59.697" height="66.158" viewBox="0 0 59.697 66.158"><g transform="translate(-12 -247.75)"><path d="M-7-31.019C-2.5-19.975-4.385-4.089-12.231,1S-33.93.464-45.458-8.012c-11.576-8.476-20.876-19.762-18.454-28S-47.3-49.472-34.8-48.94-11.456-42.11-7-31.019Z" transform="translate(76.298 310.977)" fill="rgba(228,181,150,0.3)"/><path d="M16.867,32.529a2.223,2.223,0,0,0,.181.194,2.155,2.155,0,0,1,.816,1.733c.013.5.024,1.008.024,1.511q0,4.63,0,9.259c0,.283.01.566.02.849a.288.288,0,0,0,.237.255c.156.017.313.027.469.04.188.015.378.019.564.047a.857.857,0,0,1,.714.771.917.917,0,0,1-.674.91,2.023,2.023,0,0,1-.374.043c-.283.007-.567,0-.851,0H3.156c-.315,0-.629.011-.944.021a.278.278,0,0,0-.261.224c-.008.471-.014.941-.012,1.412a.3.3,0,0,0,.32.275c.315.01.63.016.945.016h12c.252,0,.5-.007.756.006a2.153,2.153,0,0,1,.463.076.857.857,0,0,1,.542.488.825.825,0,0,1-.549,1.116,5.332,5.332,0,0,1-.844.073c-1.481.007-2.962-.01-4.443.007-1.323.016-2.645.056-3.963.193a23.723,23.723,0,0,1-3.4.059,8.939,8.939,0,0,1-.934-.133c-.187-.028-.373-.058-.561-.08-.206-.024-.342.106-.353.336-.009.189-.013.378-.013.567,0,.409,0,.819,0,1.228,0,.252,0,.5,0,.756.05,3.749-.046,7.494-.216,11.238a13.206,13.206,0,0,0,.29,3.378,5.161,5.161,0,0,0,1,2.217A4.093,4.093,0,0,0,4.8,72.926a6.98,6.98,0,0,0,1.464.361c.375.05.75.1,1.127.128a34.121,34.121,0,0,0,6.887-.076,5.477,5.477,0,0,0,1.539-.433,3.565,3.565,0,0,0,2.2-2.758A15.4,15.4,0,0,0,18.2,68.46c.025-.313.006-.63.006-.944q0-8.361,0-16.722c0-.315,0-.63.021-.944a.808.808,0,0,1,.813-.76.839.839,0,0,1,.865.711,7.442,7.442,0,0,1,.033.848q0,3.685,0,7.369c0,.313.015.626.023.958.133.1.25.2.38.285a17.273,17.273,0,0,0,5.758,2.3,16.972,16.972,0,0,0,4.417.343,16.751,16.751,0,0,0,3.632-.579,17.484,17.484,0,0,0,5.6-2.665,15.566,15.566,0,0,0,3.235-3.154,14.887,14.887,0,0,0,2.4-4.576,17.423,17.423,0,0,0,.664-3.135,16.567,16.567,0,0,0-.051-4.239,15.7,15.7,0,0,0-1.778-5.541,16.014,16.014,0,0,0-7.148-6.779,16.415,16.415,0,0,0-4.94-1.535,17.4,17.4,0,0,0-8.2.755,17.15,17.15,0,0,0-3.726,1.821c-.265.17-.529.343-.806.491a.678.678,0,0,1-.794-.078.869.869,0,0,1-.326-.922,1.229,1.229,0,0,1,.5-.663,17.466,17.466,0,0,1,2.1-1.265,18.939,18.939,0,0,1,5.068-1.761,19.291,19.291,0,0,1,3.284-.337,18.631,18.631,0,0,1,7.115,1.278,17.8,17.8,0,0,1,9.306,7.918,17.291,17.291,0,0,1,2.123,6.508,18.593,18.593,0,0,1-.571,7.389,16.885,16.885,0,0,1-4.3,7.336,18.632,18.632,0,0,1-6.78,4.357,19.116,19.116,0,0,1-5.526,1.147A18.566,18.566,0,0,1,24.8,63.12a17.156,17.156,0,0,1-3.954-1.527c-.221-.118-.45-.224-.681-.322-.042-.018-.113.032-.2.061-.006.3-.016.615-.017.928q-.008,3.259-.014,6.519a9.95,9.95,0,0,1-.131,1.788c-.063.34-.127.681-.212,1.016a4.252,4.252,0,0,1-3.821,3.4,18.472,18.472,0,0,1-2.827.187c-1.04-.01-2.079-.016-3.119-.036-1.229-.023-2.456-.083-3.685-.026A10.256,10.256,0,0,1,4.062,75,4.257,4.257,0,0,1,.789,72.707a6.489,6.489,0,0,1-.7-2.533,22.847,22.847,0,0,1-.07-3.019c.065-1.352.092-2.707.095-4.061.01-4.976,0-9.951.005-14.927,0-.314,0-.631.027-.943a.877.877,0,0,1,.79-.812,8.225,8.225,0,0,1,.942-.04q5.766,0,11.532,0c.63,0,1.26,0,1.891,0,.188,0,.377-.018.564-.034a.282.282,0,0,0,.246-.245c.011-.283.022-.566.022-.849q0-3.4,0-6.8,0-1.135.1-2.264a7.949,7.949,0,0,0,.039-1.037,4.117,4.117,0,0,0-.129-.74.48.48,0,0,0-.4-.355A1.9,1.9,0,0,0,15.281,34q-.992.027-1.982.071c-.661.029-1.321.093-1.981.1-2.142.006-4.285-.009-6.427-.015-.126,0-.252,0-.377.014a.478.478,0,0,0-.418.335,3.216,3.216,0,0,0-.177.732c-.081.783-.165,1.567-.2,2.352a28.528,28.528,0,0,0,.06,2.926c.075,1.32.1,2.643.145,3.965a3.482,3.482,0,0,1-.013.377.84.84,0,0,1-.517.727.867.867,0,0,1-1.15-.514,1.845,1.845,0,0,1-.074-.558c.013-1.419-.13-2.831-.175-4.247-.037-1.2-.038-2.393-.045-3.589a15.3,15.3,0,0,1,.218-2.443A1.988,1.988,0,0,1,2.8,32.991a2.653,2.653,0,0,0,.278-.253.481.481,0,0,0,.116-.25c.021-.25.022-.5.022-.755q0-3.259,0-6.519c0-.315.01-.63.023-.944a6.683,6.683,0,0,1,1.046-3.2,10.663,10.663,0,0,1,1.178-1.593,18.274,18.274,0,0,1,3.783-3.258,8.727,8.727,0,0,1,1.605-.794,4.6,4.6,0,0,1,1.2-.247,2.648,2.648,0,0,1,1.027.123,1.99,1.99,0,0,1,1.282,1.041c.249.509.49,1.022.713,1.542a21.787,21.787,0,0,1,1.6,6.1c.047.406.058.816.089,1.224a.2.2,0,0,0,.287.134c.141-.069.282-.139.419-.215a25.343,25.343,0,0,1,6.3-2.508,26.043,26.043,0,0,1,3.249-.587c.942-.107,1.884-.13,2.829-.148a22.571,22.571,0,0,1,4.6.444,23.068,23.068,0,0,1,6.988,2.52,23.463,23.463,0,0,1,6.044,4.789,23.739,23.739,0,0,1,3.877,5.9,24.148,24.148,0,0,1,1.855,5.834,23.624,23.624,0,0,1,.333,6.3A24.49,24.49,0,0,1,46.5,62.967a10.349,10.349,0,0,1-.838.763.876.876,0,0,1-1.259-.165.72.72,0,0,1-.05-.876,5.938,5.938,0,0,1,.626-.7A19.047,19.047,0,0,0,47,59.741a23.383,23.383,0,0,0,2.883-4.752,22.424,22.424,0,0,0,1.042-2.834,22.547,22.547,0,0,0,.541-10.469,19.708,19.708,0,0,0-.558-2.293,21.978,21.978,0,0,0-3.089-6.443,21.307,21.307,0,0,0-12.015-8.494,21,21,0,0,0-6.444-.818,23.765,23.765,0,0,0-11.658,3.4c-.189.114-.373.234-.558.355a.523.523,0,0,0-.259.471c0,.157,0,.315,0,.472q-.009,1.795-.019,3.59C16.866,32.12,16.867,32.307,16.867,32.529ZM13.984,20.074c-.085.051-.185.079-.234.145-.206.278-.394.569-.593.853a14.527,14.527,0,0,1-4.5,4.248c-.513.3-1.053.565-1.592.823a.866.866,0,0,1-1.054-.4.8.8,0,0,1,.225-1.089,4.718,4.718,0,0,1,.571-.331,15.018,15.018,0,0,0,2.671-1.771,12.026,12.026,0,0,0,2.842-3.378,3.479,3.479,0,0,0,.469-1.129,2.6,2.6,0,0,0,.049-.372.715.715,0,0,0-.6-.734,1.682,1.682,0,0,0-1.013.136,6.2,6.2,0,0,0-.836.433,17.243,17.243,0,0,0-4.141,3.832,6.393,6.393,0,0,0-.833,1.369A3.947,3.947,0,0,0,5,24.344c0,.22-.029.44-.029.66q0,3.354,0,6.707c0,.156.021.312.037.468a.3.3,0,0,0,.262.229c.125.009.251.022.377.021,2.961,0,5.922.051,8.881-.128.094-.006.188-.014.282-.024a.278.278,0,0,0,.258-.23c.02-.219.039-.438.049-.658a54.13,54.13,0,0,0-.081-5.759,26.153,26.153,0,0,0-.638-4.292A4.587,4.587,0,0,0,13.984,20.074Z" transform="translate(15 232.825)" fill="#764b72" stroke="#764b72" stroke-width="0.5"/></g></svg>