<svg xmlns="http://www.w3.org/2000/svg" width="45.194" height="60.863" viewBox="0 0 45.194 60.863"><g transform="translate(-10.288 -511.637)"><path d="M39.138,574.045a.425.425,0,0,0-.073.129,1.85,1.85,0,0,0-.038.336q-.088,5.563-.174,11.127-.118,7.347-.239,14.7-.059,3.78-.094,7.56c-.007.708.024,1.416.031,2.123.008.821.016,1.642.011,2.464A9.8,9.8,0,0,1,38.205,615a6.211,6.211,0,0,1-1.139,2.26,7.348,7.348,0,0,1-.635.682.7.7,0,0,1-.788.142,3.082,3.082,0,0,1-1.855-1.868,5.486,5.486,0,0,1-.334-1.573c-.026-.31-.031-.622-.036-.934q-.06-3.865-.117-7.73-.11-7.56-.22-15.12-.127-8.07-.274-16.139a2.457,2.457,0,0,0-.028-.422.34.34,0,0,0-.132-.2c-.117-.076-.257-.116-.381-.182a1.932,1.932,0,0,1-1.089-1.523,4.377,4.377,0,0,1,.031-1.52,1.693,1.693,0,0,1,1.178-1.329,2.92,2.92,0,0,1,.913-.183c.538,0,1.076-.027,1.614-.019a18.479,18.479,0,0,0,1.867-.063,7.361,7.361,0,0,1,2.284.076,2.112,2.112,0,0,1,1.5,1.146,1.465,1.465,0,0,1,.145.4,3.868,3.868,0,0,1-.191,2.251,1.033,1.033,0,0,1-.5.553C39.734,573.825,39.44,573.926,39.138,574.045Zm-4.388-1.408v-.026c.368-.015.737-.034,1.1-.043a2.517,2.517,0,0,1,.423.024.774.774,0,0,1,.054,1.494,2.568,2.568,0,0,1-.421.048c-.34.016-.68.02-1.02.038-.378.021-.461.1-.469.45,0,.113,0,.227,0,.34.034,2.692.062,5.384.106,8.075.077,4.817.169,9.633.246,14.45q.114,7.182.208,14.365c.012.852.108,1.7.2,2.541a8.864,8.864,0,0,0,.174,1,2.68,2.68,0,0,0,.309.877.3.3,0,0,0,.5.05,2.57,2.57,0,0,0,.271-.428A5.592,5.592,0,0,0,37,613.6c.007-.679,0-1.361-.047-2.038-.05-.708-.078-1.415-.065-2.123.029-1.558.07-3.116.093-4.675q.109-7.31.207-14.62.116-8.075.236-16.15c0-.142,0-.284.01-.425a2.247,2.247,0,0,1,.043-.336.8.8,0,0,1,.6-.644c.191-.051.386-.087.575-.142a.914.914,0,0,0,.471-.347.816.816,0,0,0-.105-1.013.384.384,0,0,0-.227-.1,2.937,2.937,0,0,1-.838-.131,4.68,4.68,0,0,0-1.265-.126c-.994.009-1.977.148-2.963.254a3.36,3.36,0,0,0-.587.091,2.046,2.046,0,0,0-.534.246.42.42,0,0,0-.172.451,1.01,1.01,0,0,0,.874.809C33.788,572.613,34.269,572.619,34.75,572.637Z" transform="translate(-16.645 -45.993)" fill="#a7a7a7"/><path d="M123.247,691.278a13.414,13.414,0,0,1-1.059,5.3,14.127,14.127,0,0,1-8.918,8.046,12.7,12.7,0,0,1-3.6.578,15.931,15.931,0,0,1-2.459-.129,14.322,14.322,0,0,1-4.277-1.348,14.175,14.175,0,0,1-7.811-12.543,13.706,13.706,0,0,1,3.141-8.7,15.513,15.513,0,0,1,5.538-4.276,2.485,2.485,0,0,1,.8-.271.631.631,0,0,1,.669.41.851.851,0,0,1-.459,1.133,15.192,15.192,0,0,0-1.886.975,11.908,11.908,0,0,0-5.28,6.74,12.948,12.948,0,0,0-.542,5.372,13.549,13.549,0,0,0,1.08,4.09,11.751,11.751,0,0,0,3.553,4.591,10.963,10.963,0,0,0,3.935,1.944,13.276,13.276,0,0,0,9.273-.891,11.117,11.117,0,0,0,4.593-4.3,13.307,13.307,0,0,0-.14-13.664,12.249,12.249,0,0,0-5.7-4.795c-.234-.1-.476-.185-.7-.3a.831.831,0,0,1-.146-1.311.542.542,0,0,1,.471-.15,3.313,3.313,0,0,1,.57.154,13.685,13.685,0,0,1,2.934,1.527,14.672,14.672,0,0,1,4.03,3.975A13.557,13.557,0,0,1,123.247,691.278Z" transform="translate(-67.766 -132.7)" fill="#a7a7a7"/><path d="M124.253,556.592a14.452,14.452,0,0,1-2.076,7.658,13.541,13.541,0,0,1-3.392,3.768,16.276,16.276,0,0,1-2.148,1.37c-.174.094-.359.168-.535.26a.839.839,0,0,1-1.108-.486.661.661,0,0,1,.255-.82c.288-.18.589-.339.886-.5a13.723,13.723,0,0,0,4.648-4.156,11.944,11.944,0,0,0,2.144-5.4,11.783,11.783,0,0,0-.554-5.529,12.411,12.411,0,0,0-3.863-5.592,12.584,12.584,0,0,0-12.792-1.975,11.032,11.032,0,0,0-4.848,3.745,12.674,12.674,0,0,0-2.414,6.265,12.9,12.9,0,0,0,1.161,7.032,12.194,12.194,0,0,0,3.712,4.575,11.231,11.231,0,0,0,2.166,1.335,3.075,3.075,0,0,1,.373.2.636.636,0,0,1,.27.74.9.9,0,0,1-.735.628.476.476,0,0,1-.25-.02,7.838,7.838,0,0,1-.859-.367,13.675,13.675,0,0,1-6.425-7.094,14.94,14.94,0,0,1,1.156-13.384,12.626,12.626,0,0,1,6.684-5.382,15.29,15.29,0,0,1,9.439-.057,12.578,12.578,0,0,1,5.6,3.713,14.263,14.263,0,0,1,3.31,7.153A18.05,18.05,0,0,1,124.253,556.592Z" transform="translate(-69.105 -24.806)" fill="#a7a7a7"/><path d="M131.66,571.033a9.111,9.111,0,0,0-.938-4.359,9.228,9.228,0,0,0-2.972-3.435,9.434,9.434,0,0,0-5.321-1.783,8.236,8.236,0,0,0-5.864,2.08,8.981,8.981,0,0,0-2.187,2.9,11.092,11.092,0,0,0-.885,2.473,7.8,7.8,0,0,0,1.846,7.115,9.687,9.687,0,0,0,5.363,3.074,9.427,9.427,0,0,0,4.216-.027,8.528,8.528,0,0,0,4-2.142,9.9,9.9,0,0,0,1.657-2.04c.132-.218.264-.437.417-.64a.673.673,0,0,1,.842-.183.8.8,0,0,1,.419,1.066,1.366,1.366,0,0,1-.114.227,11.466,11.466,0,0,1-6.467,5.341,10.143,10.143,0,0,1-4.532.439,10.44,10.44,0,0,1-5.755-2.7,10.564,10.564,0,0,1-3.3-5.721,10.744,10.744,0,0,1,.542-6.339,10.528,10.528,0,0,1,2.335-3.614,9.521,9.521,0,0,1,4.532-2.553,10.627,10.627,0,0,1,4.554-.132,11.492,11.492,0,0,1,5.869,2.883,10.06,10.06,0,0,1,3.253,6.278,11.943,11.943,0,0,1,.063,2.374,3.791,3.791,0,0,1-.084.587.852.852,0,0,1-1.227.51.53.53,0,0,1-.282-.4,5.342,5.342,0,0,1-.01-.593C131.634,571.486,131.65,571.26,131.66,571.033Z" transform="translate(-81.111 -38.544)" fill="#a7a7a7"/><path d="M123.42,690.521a10.022,10.022,0,0,1,5.1,1.406,12.044,12.044,0,0,1,2.7,2.047,9.578,9.578,0,0,1,2.6,9.058,11.476,11.476,0,0,1-5.1,7.242,10.325,10.325,0,0,1-6.47,1.658,11.563,11.563,0,0,1-2.981-.64c-.054-.018-.108-.035-.16-.057a.806.806,0,0,1-.495-1.037.658.658,0,0,1,.777-.493c.194.038.382.1.573.154a12.408,12.408,0,0,0,2.163.425,9.754,9.754,0,0,0,10.192-7.488,7.85,7.85,0,0,0-1.882-7.268,10.213,10.213,0,0,0-4.071-2.841,7.918,7.918,0,0,0-7.4.738,9.543,9.543,0,0,0-4.311,6.078,8.845,8.845,0,0,0,1.591,7.555c.216.3.474.563.712.843.11.129.229.252.33.388a.73.73,0,0,1-.015.871.753.753,0,0,1-1.179.141,4.667,4.667,0,0,1-.428-.412,10.621,10.621,0,0,1-2.211-10.844,11.439,11.439,0,0,1,4.955-6.162,9.466,9.466,0,0,1,4.162-1.356C122.852,690.5,123.137,690.521,123.42,690.521Z" transform="translate(-81.897 -142.878)" fill="#a7a7a7"/><path d="M19.305,511.639a5.726,5.726,0,0,1,2.109.411,10.259,10.259,0,0,1,2.254,1.175c.931.645,1.849,1.309,2.725,2.029a10.546,10.546,0,0,1,1.167,1.114,3.511,3.511,0,0,1,.7,1.157,1.542,1.542,0,0,1,.024,1,2.931,2.931,0,0,1-.359.767,5.59,5.59,0,0,1-.793.994c-.431.409-.861.821-1.306,1.215-.573.506-1.159,1-1.743,1.491a1,1,0,0,1-.28.185.757.757,0,0,1-.8-.126.747.747,0,0,1-.256-.836.777.777,0,0,1,.175-.284c.247-.233.5-.456.763-.674.456-.381.923-.75,1.377-1.135a9.193,9.193,0,0,0,1.136-1.143,1.29,1.29,0,0,0,.074-1.646,4.679,4.679,0,0,0-.644-.785,9.7,9.7,0,0,0-1.039-.873,16.14,16.14,0,0,0-3.484-1.928c-.263-.1-.535-.186-.8-.289a3.06,3.06,0,0,0-2.157-.006,14.906,14.906,0,0,0-3.906,2.023,9.958,9.958,0,0,0-1.227,1.046,3.42,3.42,0,0,0-.622.8,3.227,3.227,0,0,0-.2.465,1.036,1.036,0,0,0,.089.9,3.222,3.222,0,0,0,.45.613,10.922,10.922,0,0,0,.938.86c.616.5,1.25.975,1.874,1.465a3.064,3.064,0,0,1,.379.338.641.641,0,0,1,.007.856,1.2,1.2,0,0,1-.318.273.677.677,0,0,1-.724-.009,2.675,2.675,0,0,1-.276-.2c-.644-.51-1.291-1.016-1.927-1.536a10.809,10.809,0,0,1-1.648-1.589,3.824,3.824,0,0,1-.573-.939,2.007,2.007,0,0,1,.118-1.874,5.848,5.848,0,0,1,.615-.809,8.655,8.655,0,0,1,1.326-1.19q1.081-.824,2.187-1.615a10.71,10.71,0,0,1,2.077-1.15A6.075,6.075,0,0,1,19.305,511.639Z" fill="#a7a7a7"/><path d="M158.416,576.476a7.462,7.462,0,0,1,3.3,1.019,8.1,8.1,0,0,1,4.131,6.457,2.454,2.454,0,0,1,0,.591.712.712,0,0,1-.511.618.7.7,0,0,1-.782-.176.85.85,0,0,1-.2-.36c-.06-.275-.084-.559-.119-.839a6.514,6.514,0,0,0-5.91-5.728c-.141-.014-.283-.013-.424-.027a1.269,1.269,0,0,1-.248-.053.81.81,0,0,1-.534-.786.754.754,0,0,1,.71-.715C157.96,576.468,158.1,576.476,158.416,576.476Z" transform="translate(-117.271 -51.788)" fill="#a7a7a7"/><path d="M150.293,674.306q-1.1,0-2.2,0c-.2,0-.4,0-.592-.013a.767.767,0,0,1-.579-1.195.652.652,0,0,1,.475-.319,5.278,5.278,0,0,1,.59-.035q2.285,0,4.569,0a4.119,4.119,0,0,1,.59.039.746.746,0,0,1,.585.732.762.762,0,0,1-.564.751,3.024,3.024,0,0,1-.5.037c-.79,0-1.58,0-2.369,0Z" transform="translate(-109.029 -128.683)" fill="#a7a7a7"/><path d="M40.4,544.621a.786.786,0,0,1-.665-.287c-.112-.127-.211-.266-.312-.4q-1.036-1.4-2.07-2.8c-.084-.114-.17-.227-.247-.345a.61.61,0,0,1,.148-.832.858.858,0,0,1,1.219.072,3.946,3.946,0,0,1,.266.33q1.061,1.433,2.118,2.868a4.135,4.135,0,0,1,.278.426.613.613,0,0,1-.117.706A.852.852,0,0,1,40.4,544.621Z" transform="translate(-21.34 -22.445)" fill="#a7a7a7"/></g></svg>